<?xml version="1.0" encoding="UTF-8" standalone="no"?>
<svg
   width="2245"
   zoomAndPan="magnify"
   viewBox="0 0 1683.75 1190.250009"
   height="1587"
   preserveAspectRatio="xMidYMid meet"
   version="1.0"
   id="svg120"
   sodipodi:docname="mhcmatch_light_bg.svg"
   inkscape:version="1.4.4 (dcaf3e7, 2026-05-05)"
   xmlns:inkscape="http://www.inkscape.org/namespaces/inkscape"
   xmlns:sodipodi="http://sodipodi.sourceforge.net/DTD/sodipodi-0.dtd"
   xmlns="http://www.w3.org/2000/svg"
   xmlns:svg="http://www.w3.org/2000/svg">
  <sodipodi:namedview
     id="namedview120"
     pagecolor="#ffffff"
     bordercolor="#000000"
     borderopacity="0.25"
     inkscape:showpageshadow="2"
     inkscape:pageopacity="0.0"
     inkscape:pagecheckerboard="0"
     inkscape:deskcolor="#d1d1d1"
     inkscape:zoom="0.016383113"
     inkscape:cx="1098.6923"
     inkscape:cy="762.98077"
     inkscape:window-width="944"
     inkscape:window-height="812"
     inkscape:window-x="0"
     inkscape:window-y="33"
     inkscape:window-maximized="0"
     inkscape:current-layer="svg120" />
  <defs
     id="defs10">
    <g
       id="g1" />
    <clipPath
       id="835361c062">
      <path
         d="M 0.40625 0 L 1683.09375 0 L 1683.09375 1189.5 L 0.40625 1189.5 Z M 0.40625 0 "
         clip-rule="nonzero"
         id="path1" />
    </clipPath>
    <clipPath
       id="175173f489">
      <path
         d="M 0.40625 0 L 1682.667969 0 L 1682.667969 1189.199219 L 0.40625 1189.199219 Z M 0.40625 0 "
         clip-rule="nonzero"
         id="path2" />
    </clipPath>
    <clipPath
       id="16ce7f7f11">
      <path
         d="M 302 303 L 454.40625 303 L 454.40625 455 L 302 455 Z M 302 303 "
         clip-rule="nonzero"
         id="path3" />
    </clipPath>
    <clipPath
       id="99c8845848">
      <path
         d="M 0.613281 1 L 378 1 L 378 379 L 0.613281 379 Z M 0.613281 1 "
         clip-rule="nonzero"
         id="path4" />
    </clipPath>
    <clipPath
       id="d19e4e3337">
      <path
         d="M 0.613281 56 L 323 56 L 323 379 L 0.613281 379 Z M 0.613281 56 "
         clip-rule="nonzero"
         id="path5" />
    </clipPath>
    <clipPath
       id="e3ad0b0482">
      <rect
         x="0"
         width="455"
         y="0"
         height="456"
         id="rect5" />
    </clipPath>
    <clipPath
       id="01839880ad">
      <path
         d="M 75.339844 1142.34375 L 1607.734375 1142.34375 L 1607.734375 1148.339844 L 75.339844 1148.339844 Z M 75.339844 1142.34375 "
         clip-rule="nonzero"
         id="path6" />
    </clipPath>
    <clipPath
       id="613dca0a69">
      <path
         d="M 0.339844 0.34375 L 1532.734375 0.34375 L 1532.734375 6.339844 L 0.339844 6.339844 Z M 0.339844 0.34375 "
         clip-rule="nonzero"
         id="path7" />
    </clipPath>
    <clipPath
       id="dbc5105a24">
      <rect
         x="0"
         width="1533"
         y="0"
         height="7"
         id="rect7" />
    </clipPath>
    <clipPath
       id="487f7e4e02">
      <path
         d="M 51.375 220 L 969 220 L 969 628.332031 L 51.375 628.332031 Z M 51.375 220 "
         clip-rule="nonzero"
         id="path8" />
    </clipPath>
    <clipPath
       id="1152b65718">
      <path
         d="M 0.375 1 L 917 1 L 917 408.332031 L 0.375 408.332031 Z M 0.375 1 "
         clip-rule="nonzero"
         id="path9" />
    </clipPath>
    <clipPath
       id="eed5dea1c8">
      <rect
         x="0"
         width="918"
         y="0"
         height="409"
         id="rect9" />
    </clipPath>
    <clipPath
       id="11c82775b0">
      <rect
         x="0"
         width="1684"
         y="0"
         height="1190"
         id="rect10" />
    </clipPath>
  </defs>
  <g
     clip-path="url(#835361c062)"
     id="g120">
    <g
       transform="matrix(1, 0, 0, 1, 0, 0.00000000000002896)"
       id="g119">
      <g
         clip-path="url(#11c82775b0)"
         id="g118">
        <g
           clip-path="url(#175173f489)"
           id="g11">
          <path
             fill="#ffffff"
             d="M 0.40625 0 L 1682.667969 0 L 1682.667969 1189.199219 L 0.40625 1189.199219 Z M 0.40625 0 "
             fill-opacity="1"
             fill-rule="nonzero"
             id="path11" />
        </g>
        <g
           fill="#34495e"
           fill-opacity="1"
           id="g14">
          <g
             transform="translate(20.454212, 957.786717)"
             id="g13">
            <g
               id="g12">
              <path
                 d="M 177.59375 0 L 99.75 -253.671875 L 97.75 -253.671875 C 98.050781 -247.628906 98.53125 -238.523438 99.1875 -226.359375 C 99.851562 -214.191406 100.476562 -201.25 101.0625 -187.53125 C 101.65625 -173.820312 101.953125 -161.441406 101.953125 -150.390625 L 101.953125 0 L 40.6875 0 L 40.6875 -323.34375 L 134.03125 -323.34375 L 210.546875 -76.078125 L 211.875 -76.078125 L 293.03125 -323.34375 L 386.375 -323.34375 L 386.375 0 L 322.453125 0 L 322.453125 -153.046875 C 322.453125 -163.210938 322.632812 -174.929688 323 -188.203125 C 323.375 -201.472656 323.851562 -214.113281 324.4375 -226.125 C 325.03125 -238.144531 325.472656 -247.179688 325.765625 -253.234375 L 323.78125 -253.234375 L 240.40625 0 Z M 177.59375 0 "
                 id="path12" />
            </g>
          </g>
        </g>
        <g
           fill="#34495e"
           fill-opacity="1"
           id="g17">
          <g
             transform="translate(415.810075, 957.786717)"
             id="g16">
            <g
               id="g15">
              <path
                 d="M 305.640625 0 L 237.3125 0 L 237.3125 -139.546875 L 109.25 -139.546875 L 109.25 0 L 40.6875 0 L 40.6875 -323.34375 L 109.25 -323.34375 L 109.25 -196.609375 L 237.3125 -196.609375 L 237.3125 -323.34375 L 305.640625 -323.34375 Z M 305.640625 0 "
                 id="path14" />
            </g>
          </g>
        </g>
        <g
           fill="#34495e"
           fill-opacity="1"
           id="g20">
          <g
             transform="translate(730.66341, 957.786717)"
             id="g19">
            <g
               id="g18">
              <path
                 d="M 178.03125 -270.921875 C 164.90625 -270.921875 153.289062 -268.375 143.1875 -263.28125 C 133.09375 -258.195312 124.617188 -250.863281 117.765625 -241.28125 C 110.910156 -231.695312 105.710938 -220.125 102.171875 -206.5625 C 98.640625 -193 96.875 -177.738281 96.875 -160.78125 C 96.875 -137.925781 99.707031 -118.425781 105.375 -102.28125 C 111.050781 -86.132812 119.859375 -73.820312 131.796875 -65.34375 C 143.742188 -56.875 159.15625 -52.640625 178.03125 -52.640625 C 191.15625 -52.640625 204.316406 -54.113281 217.515625 -57.0625 C 230.710938 -60.007812 245.050781 -64.210938 260.53125 -69.671875 L 260.53125 -12.15625 C 246.226562 -6.257812 232.144531 -2.023438 218.28125 0.546875 C 204.425781 3.128906 188.875 4.421875 171.625 4.421875 C 138.300781 4.421875 110.910156 -2.46875 89.453125 -16.25 C 68.003906 -30.039062 52.117188 -49.359375 41.796875 -74.203125 C 31.472656 -99.046875 26.3125 -128.050781 26.3125 -161.21875 C 26.3125 -185.695312 29.628906 -208.109375 36.265625 -228.453125 C 42.898438 -248.804688 52.628906 -266.425781 65.453125 -281.3125 C 78.285156 -296.207031 94.140625 -307.707031 113.015625 -315.8125 C 131.890625 -323.925781 153.5625 -327.984375 178.03125 -327.984375 C 194.101562 -327.984375 210.210938 -325.953125 226.359375 -321.890625 C 242.503906 -317.835938 257.945312 -312.273438 272.6875 -305.203125 L 250.578125 -249.46875 C 238.484375 -255.21875 226.316406 -260.226562 214.078125 -264.5 C 201.847656 -268.78125 189.832031 -270.921875 178.03125 -270.921875 Z M 178.03125 -270.921875 "
                 id="path17" />
            </g>
          </g>
        </g>
        <g
           transform="matrix(1, 0, 0, 1, 1129, 374)"
           id="g25">
          <g
             clip-path="url(#e3ad0b0482)"
             id="g24">
            <g
               clip-path="url(#16ce7f7f11)"
               id="g21">
              <path
                 fill="#5a6c7d"
                 d="M 442.097656 384.773438 L 361.167969 304.027344 C 360.757812 303.621094 360.277344 303.320312 359.847656 303.027344 C 352.578125 314.210938 343.882812 324.839844 334.070312 334.652344 C 324.265625 344.464844 313.621094 353.160156 302.320312 360.449219 C 302.71875 360.867188 303.023438 361.355469 303.429688 361.753906 L 384.199219 442.675781 C 400.1875 458.640625 426.148438 458.617188 442.078125 442.675781 C 458.035156 426.722656 458.042969 400.75 442.097656 384.773438 Z M 442.097656 384.773438 "
                 fill-opacity="1"
                 fill-rule="nonzero"
                 id="path20" />
            </g>
            <path
               fill="#34495e"
               d="M 334.074219 334.644531 L 334.070312 334.652344 C 324.265625 344.464844 313.621094 353.160156 302.320312 360.449219 C 302.71875 360.867188 303.023438 361.355469 303.429688 361.753906 L 384.199219 442.675781 C 400.1875 458.640625 426.148438 458.617188 442.078125 442.675781 Z M 334.074219 334.644531 "
               fill-opacity="1"
               fill-rule="nonzero"
               id="path21" />
            <g
               clip-path="url(#99c8845848)"
               id="g22">
              <path
                 fill="#ff5050"
                 d="M 322.539062 56.363281 C 249.015625 -17.148438 129.402344 -17.148438 55.871094 56.378906 C -17.734375 129.882812 -17.746094 249.582031 55.816406 323.117188 C 129.375 396.613281 249.007812 396.613281 322.539062 323.109375 C 396.058594 249.582031 396.054688 129.871094 322.539062 56.363281 Z M 90.472656 288.496094 C 36.039062 234.058594 36.054688 145.4375 90.492188 91.050781 C 144.929688 36.625 233.496094 36.625 287.914062 91.027344 C 342.3125 145.433594 342.296875 233.957031 287.914062 288.476562 C 233.488281 342.742188 144.929688 342.941406 90.472656 288.496094 Z M 90.472656 288.496094 "
                 fill-opacity="1"
                 fill-rule="nonzero"
                 id="path22" />
            </g>
            <g
               clip-path="url(#d19e4e3337)"
               id="g23">
              <path
                 fill="#ffadad"
                 d="M 55.871094 56.378906 C -17.734375 129.882812 -17.746094 249.582031 55.816406 323.117188 C 129.375 396.613281 249.007812 396.613281 322.539062 323.109375 L 287.914062 288.476562 C 233.484375 342.742188 144.929688 342.941406 90.472656 288.496094 C 36.039062 234.058594 36.054688 145.4375 90.492188 91.050781 L 90.515625 91.03125 Z M 55.871094 56.378906 "
                 fill-opacity="1"
                 fill-rule="nonzero"
                 id="path23" />
            </g>
            <path
               fill="#95a5a6"
               d="M 252.121094 164.335938 C 257.121094 180.488281 274.964844 202.230469 288.339844 194.128906 C 298.957031 187.859375 294.289062 162.402344 288.1875 147.546875 C 260.835938 79.996094 175.933594 70.59375 167.738281 79.855469 C 159.679688 88.964844 232.296875 100.402344 252.121094 164.335938 Z M 252.121094 164.335938 "
               fill-opacity="1"
               fill-rule="nonzero"
               id="path24" />
          </g>
        </g>
        <g
           clip-path="url(#01839880ad)"
           id="g29">
          <g
             transform="matrix(1, 0, 0, 1, 75, 1142)"
             id="g28">
            <g
               clip-path="url(#dbc5105a24)"
               id="g27">
              <g
                 clip-path="url(#613dca0a69)"
                 id="g26">
                <path
                   fill="#34495e"
                   d="M 0.339844 0.34375 L 1532.734375 0.34375 L 1532.734375 6.339844 L 0.339844 6.339844 Z M 0.339844 0.34375 "
                   fill-opacity="1"
                   fill-rule="nonzero"
                   id="path25" />
              </g>
            </g>
          </g>
        </g>
        <g
           clip-path="url(#487f7e4e02)"
           id="g33">
          <g
             transform="matrix(1, 0, 0, 1, 51, 220)"
             id="g32">
            <g
               clip-path="url(#eed5dea1c8)"
               id="g31">
              <path
                 fill="#ff5050"
                 d="M 198.585938 117.773438 C 208.035156 120.527344 221.996094 117.003906 235.503906 113.59375 C 251.410156 109.570312 267.84375 105.421875 283.625 108.847656 C 299.632812 112.324219 312.710938 123.296875 324.25 132.984375 C 334.464844 141.558594 344.117188 149.65625 352.960938 150.8125 C 361.9375 151.863281 374.265625 146.199219 386.179688 140.722656 C 400.714844 134.019531 415.753906 127.109375 431.753906 127.800781 C 447.539062 128.496094 461.605469 136.550781 475.207031 144.351562 C 487.027344 151.117188 498.132812 157.320312 507.300781 157.136719 C 516.121094 156.75 526.390625 149.558594 537.265625 141.933594 C 550.15625 132.902344 563.488281 123.574219 579.527344 121.476562 C 595.425781 119.433594 611.226562 124.980469 626.484375 130.371094 C 639.183594 134.859375 652.324219 139.488281 661.289062 137.628906 C 670.332031 135.65625 679.34375 126.761719 688.890625 117.328125 C 699.703125 106.652344 711.960938 94.550781 727.851562 89.832031 C 735.671875 87.53125 743.9375 91.980469 746.261719 99.816406 C 748.585938 107.664062 744.121094 115.90625 736.273438 118.234375 C 727.496094 120.839844 718.851562 129.371094 709.703125 138.410156 C 698.136719 149.828125 685.023438 162.777344 667.460938 166.597656 C 650.273438 170.210938 633.152344 164.152344 616.617188 158.300781 C 604.640625 154.074219 592.246094 149.65625 583.359375 150.859375 C 574.527344 152.003906 564.683594 158.894531 554.257812 166.203125 C 541.035156 175.464844 526.042969 185.960938 508.601562 186.730469 C 507.902344 186.757812 507.210938 186.777344 506.515625 186.777344 L 506.519531 186.777344 C 489.664062 186.777344 474.191406 177.910156 460.484375 170.058594 C 449.464844 163.742188 439.058594 157.773438 430.460938 157.398438 C 421.59375 157.109375 409.902344 162.414062 398.582031 167.621094 C 382.910156 174.839844 366.722656 182.28125 349.273438 180.203125 C 331.710938 177.910156 317.636719 166.097656 305.21875 155.671875 C 295.441406 147.460938 286.203125 139.710938 277.34375 137.785156 C 268.386719 135.832031 255.359375 139.121094 242.777344 142.3125 C 225.417969 146.703125 207.476562 151.234375 190.253906 146.191406 C 182.410156 143.890625 177.90625 135.660156 180.210938 127.8125 C 182.515625 119.96875 190.726562 115.425781 198.59375 117.773438 Z M 198.585938 117.773438 "
                 fill-opacity="1"
                 fill-rule="nonzero"
                 id="path29" />
              <g
                 clip-path="url(#1152b65718)"
                 id="g30">
                <path
                   fill="#ff5050"
                   d="M 0.324219 123.128906 C 0.324219 102.605469 5.902344 84.183594 15.988281 69.5625 C 26.058594 54.960938 40.660156 44.175781 59.101562 38.96875 C 67.703125 36.730469 77.058594 35.613281 87.148438 35.785156 C 88.246094 33.761719 89.460938 31.8125 90.753906 29.921875 C 100.128906 16.710938 113.339844 7.316406 130.046875 3.148438 C 143.953125 0.0234375 159.945312 0.371094 178.039062 5.925781 C 192.988281 10.460938 210.367188 16.710938 229.152344 23.324219 C 291.746094 45.21875 371.71875 73.746094 458.308594 73.746094 C 544.898438 73.746094 625.21875 45.21875 687.464844 23.324219 C 706.253906 16.710938 723.632812 10.460938 738.929688 5.925781 C 756.675781 0.371094 772.664062 0.0234375 786.574219 3.148438 C 803.257812 7.316406 816.492188 16.710938 825.867188 29.921875 C 827.15625 31.8125 828.375 33.761719 829.492188 35.785156 C 839.5625 35.613281 848.917969 36.730469 857.519531 38.96875 C 875.941406 44.175781 890.890625 54.960938 900.976562 69.5625 C 910.71875 84.183594 916.273438 102.605469 916.273438 123.128906 C 916.273438 147.472656 908.636719 175.285156 892.296875 203.449219 C 891.273438 205.222656 890.195312 206.980469 889.078125 208.714844 C 889.132812 209.96875 889.152344 211.222656 889.152344 212.496094 C 889.152344 235.101562 881.863281 260.488281 866.546875 286.566406 C 840.816406 329.675781 791.085938 359.246094 725.714844 378.363281 C 652.011719 399.929688 558.460938 408.609375 458.308594 408.609375 C 358.160156 408.609375 264.625 399.929688 190.902344 378.363281 C 125.878906 359.246094 75.804688 329.675781 50.074219 286.566406 C 34.757812 260.488281 27.464844 235.101562 27.464844 212.496094 C 27.464844 211.203125 27.484375 209.929688 27.542969 208.675781 C 26.425781 206.960938 25.363281 205.222656 24.320312 203.449219 C 7.984375 175.285156 0.324219 147.472656 0.324219 123.128906 Z M 741.378906 14.625 C 674.253906 35.148438 572.367188 82.773438 458.308594 82.773438 C 344.253906 82.773438 242.367188 35.148438 175.242188 14.625 C 139.554688 3.785156 112.339844 14.046875 97.5625 36.441406 C 104.816406 37.175781 112.394531 38.582031 120.304688 40.707031 C 139.074219 45.914062 159.25 52.53125 181.855469 59.492188 C 256.96875 83.816406 353.628906 114.429688 458.308594 114.429688 C 562.992188 114.429688 659.652344 83.816406 735.109375 59.492188 C 757.371094 52.53125 777.875 45.914062 796.316406 40.707031 C 804.222656 38.582031 811.804688 37.175781 819.054688 36.441406 C 804.28125 14.046875 777.0625 3.785156 741.378906 14.625 Z M 92.164062 254.136719 C 93.5625 256.929688 95.308594 259.378906 97.058594 261.824219 C 154.375 344.652344 313.386719 372.261719 494.414062 372.261719 C 631.429688 372.261719 755.789062 356.625 832.851562 313.058594 C 843.128906 303.546875 851.765625 293.117188 858.5625 281.6875 C 870.867188 260.933594 877.578125 240.679688 879.414062 222.257812 C 879.972656 216.722656 880.066406 211.359375 879.742188 206.191406 C 877.773438 173.398438 858.773438 148.804688 827.582031 141.9375 C 824.574219 141.261719 821.46875 140.761719 818.226562 140.453125 C 806.304688 139.238281 792.898438 140.394531 778.222656 144.328125 C 702.414062 164.503906 587.316406 212.496094 458.308594 212.496094 C 329.304688 212.496094 214.203125 164.503906 138.398438 144.328125 C 123.71875 140.394531 110.3125 139.21875 98.390625 140.433594 C 95.171875 140.742188 92.046875 141.242188 89.054688 141.917969 C 86.230469 142.539062 83.546875 143.355469 80.925781 144.257812 C 64.96875 170.851562 66.703125 211.472656 92.164062 254.136719 Z M 55.433594 148.09375 C 63.070312 141.851562 72.121094 137.132812 82.402344 134.261719 C 83.480469 133.933594 84.5625 133.644531 85.660156 133.371094 C 88.59375 132.621094 91.640625 132.042969 94.785156 131.617188 C 108.421875 129.726562 123.929688 130.808594 140.828125 135.300781 C 158.207031 140.164062 177.34375 146.085938 198.542969 152.679688 C 269.488281 174.941406 359.894531 203.449219 458.308594 203.449219 C 556.722656 203.449219 647.480469 174.941406 718.078125 152.679688 C 739.277344 146.085938 758.757812 140.164062 775.789062 135.300781 C 792.628906 130.828125 808.101562 129.726562 821.835938 131.597656 C 824.996094 132.003906 828.046875 132.582031 831.015625 133.335938 C 832.210938 133.605469 833.386719 133.914062 834.566406 134.261719 C 851.945312 139.121094 865.503906 149.210938 874.898438 163.117188 C 881.011719 171.953125 885.21875 182.117188 887.398438 193.4375 C 929.292969 116.1875 901.210938 46.609375 833.910156 45.027344 C 830.667969 44.96875 827.351562 45.046875 823.957031 45.296875 C 816.007812 45.859375 807.578125 47.324219 798.746094 49.753906 C 718.078125 71.667969 595.667969 123.824219 458.308594 123.824219 C 320.949219 123.824219 198.542969 71.648438 117.875 49.753906 C 109.019531 47.324219 100.609375 45.859375 92.664062 45.296875 C 89.289062 45.046875 86.007812 44.96875 82.804688 45.027344 C 75.414062 45.195312 68.523438 46.230469 62.121094 47.960938 C 44.476562 71.433594 40.882812 107.867188 55.433594 148.09375 Z M 55.433594 148.09375 "
                   fill-opacity="1"
                   fill-rule="nonzero"
                   id="path30" />
              </g>
            </g>
          </g>
        </g>
        <path
           fill="#34495e"
           d="M 1051.8125 865.136719 L 1670.671875 865.136719 L 1670.671875 978.285156 L 1051.8125 978.285156 L 1051.8125 865.136719 "
           fill-opacity="1"
           fill-rule="nonzero"
           id="path33" />
        <g
           fill="#ffadad"
           fill-opacity="1"
           id="g36">
          <g
             transform="translate(1051.812034, 955.805245)"
             id="g35">
            <g
               id="g34" />
          </g>
        </g>
        <g
           fill="#ffadad"
           fill-opacity="1"
           id="g39">
          <g
             transform="translate(1086.445937, 955.805245)"
             id="g38">
            <g
               id="g37" />
          </g>
        </g>
        <g
           fill="#ffadad"
           fill-opacity="1"
           id="g42">
          <g
             transform="translate(1121.07984, 955.805245)"
             id="g41">
            <g
               id="g40" />
          </g>
        </g>
        <g
           fill="#ffadad"
           fill-opacity="1"
           id="g45">
          <g
             transform="translate(1155.724144, 955.805245)"
             id="g44">
            <g
               id="g43">
              <path
                 d="M 69.171875 0 L 69.171875 -25.796875 C 69.171875 -28.984375 69.289062 -32.257812 69.53125 -35.625 C 69.78125 -38.988281 70.039062 -41.8125 70.3125 -44.09375 C 70.59375 -46.382812 70.765625 -47.84375 70.828125 -48.46875 L 70.421875 -48.46875 L 57.203125 0 L 39.21875 0 L 25.90625 -48.375 L 25.484375 -48.375 C 25.554688 -47.75 25.75 -46.304688 26.0625 -44.046875 C 26.375 -41.796875 26.664062 -38.988281 26.9375 -35.625 C 27.21875 -32.257812 27.359375 -28.984375 27.359375 -25.796875 L 27.359375 0 L 6.234375 0 L 6.234375 -71.5625 L 38.6875 -71.5625 L 49.515625 -30.265625 L 49.921875 -30.265625 L 60.640625 -71.5625 L 91.953125 -71.5625 L 91.953125 0 Z M 69.171875 0 "
                 id="path42" />
            </g>
          </g>
        </g>
        <g
           fill="#ffadad"
           fill-opacity="1"
           id="g48">
          <g
             transform="translate(1253.905552, 955.805245)"
             id="g47">
            <g
               id="g46">
              <path
                 d="M 55.640625 0 L 52.625 -10.09375 L 27.5625 -10.09375 L 24.546875 0 L 1.046875 0 L 27.140625 -71.5625 L 53.875 -71.5625 L 79.984375 0 Z M 32.34375 -26.109375 L 47.84375 -26.109375 L 40.359375 -51.59375 L 39.9375 -51.59375 Z M 32.34375 -26.109375 "
                 id="path45" />
            </g>
          </g>
        </g>
        <g
           fill="#ffadad"
           fill-opacity="1"
           id="g51">
          <g
             transform="translate(1327.645455, 955.805245)"
             id="g50">
            <g
               id="g49">
              <path
                 d="M 48.890625 -53.25 L 48.890625 0 L 25.90625 0 L 25.90625 -53.25 L 2.390625 -53.25 L 2.390625 -71.5625 L 72.296875 -71.5625 L 72.296875 -53.25 Z M 48.890625 -53.25 "
                 id="path48" />
            </g>
          </g>
        </g>
        <g
           fill="#ffadad"
           fill-opacity="1"
           id="g54">
          <g
             transform="translate(1399.201293, 955.805245)"
             id="g53">
            <g
               id="g52">
              <path
                 d="M 41.8125 -72.8125 C 52.425781 -72.8125 60.816406 -70.15625 66.984375 -64.84375 C 73.160156 -59.539062 76.25 -51.96875 76.25 -42.125 L 54.296875 -42.125 C 54.296875 -46.289062 53.203125 -49.582031 51.015625 -52 C 48.835938 -54.425781 45.734375 -55.640625 41.703125 -55.640625 C 37.054688 -55.640625 33.640625 -54.179688 31.453125 -51.265625 C 29.273438 -48.359375 28.1875 -44.304688 28.1875 -39.109375 L 28.1875 -32.453125 C 28.1875 -27.316406 29.273438 -23.273438 31.453125 -20.328125 C 33.640625 -17.390625 36.988281 -15.921875 41.5 -15.921875 C 45.9375 -15.921875 49.300781 -17.0625 51.59375 -19.34375 C 53.882812 -21.632812 55.03125 -24.859375 55.03125 -29.015625 L 76.25 -29.015625 C 76.25 -19.242188 73.25 -11.753906 67.25 -6.546875 C 61.25 -1.347656 52.769531 1.25 41.8125 1.25 C 29.601562 1.25 20.363281 -1.867188 14.09375 -8.109375 C 7.820312 -14.347656 4.6875 -23.570312 4.6875 -35.78125 C 4.6875 -47.988281 7.820312 -57.210938 14.09375 -63.453125 C 20.363281 -69.691406 29.601562 -72.8125 41.8125 -72.8125 Z M 41.8125 -72.8125 "
                 id="path51" />
            </g>
          </g>
        </g>
        <g
           fill="#ffadad"
           fill-opacity="1"
           id="g57">
          <g
             transform="translate(1480.117775, 955.805245)"
             id="g56">
            <g
               id="g55">
              <path
                 d="M 55.953125 0 L 55.953125 -27.140625 L 30.6875 -27.140625 L 30.6875 0 L 7.703125 0 L 7.703125 -71.5625 L 30.6875 -71.5625 L 30.6875 -45.453125 L 55.953125 -45.453125 L 55.953125 -71.5625 L 78.953125 -71.5625 L 78.953125 0 Z M 55.953125 0 "
                 id="path54" />
            </g>
          </g>
        </g>
        <g
           fill="#ffadad"
           fill-opacity="1"
           id="g60">
          <g
             transform="translate(1566.759522, 955.805245)"
             id="g59">
            <g
               id="g58" />
          </g>
        </g>
        <g
           fill="#ffadad"
           fill-opacity="1"
           id="g63">
          <g
             transform="translate(1601.393425, 955.805245)"
             id="g62">
            <g
               id="g61" />
          </g>
        </g>
        <g
           fill="#ffadad"
           fill-opacity="1"
           id="g66">
          <g
             transform="translate(1636.027328, 955.805245)"
             id="g65">
            <g
               id="g64" />
          </g>
        </g>
        <g
           fill="#34495e"
           fill-opacity="1"
           id="g69">
          <g
             transform="translate(90.325786, 1115.611046)"
             id="g68">
            <g
               id="g67">
              <path
                 d="M 5.328125 -17.109375 L 5.328125 0 L 2.734375 0 L 2.734375 -17.109375 Z M 4.0625 -23.515625 C 4.488281 -23.515625 4.851562 -23.375 5.15625 -23.09375 C 5.46875 -22.820312 5.625 -22.394531 5.625 -21.8125 C 5.625 -21.238281 5.46875 -20.8125 5.15625 -20.53125 C 4.851562 -20.25 4.488281 -20.109375 4.0625 -20.109375 C 3.613281 -20.109375 3.238281 -20.25 2.9375 -20.53125 C 2.644531 -20.8125 2.5 -21.238281 2.5 -21.8125 C 2.5 -22.394531 2.644531 -22.820312 2.9375 -23.09375 C 3.238281 -23.375 3.613281 -23.515625 4.0625 -23.515625 Z M 4.0625 -23.515625 "
                 id="path66" />
            </g>
          </g>
        </g>
        <g
           fill="#34495e"
           fill-opacity="1"
           id="g72">
          <g
             transform="translate(98.39481, 1115.611046)"
             id="g71">
            <g
               id="g70">
              <path
                 d="M 13.796875 -4.6875 C 13.796875 -3.59375 13.519531 -2.671875 12.96875 -1.921875 C 12.425781 -1.179688 11.644531 -0.625 10.625 -0.25 C 9.613281 0.125 8.410156 0.3125 7.015625 0.3125 C 5.816406 0.3125 4.78125 0.21875 3.90625 0.03125 C 3.03125 -0.15625 2.265625 -0.421875 1.609375 -0.765625 L 1.609375 -3.15625 C 2.304688 -2.8125 3.140625 -2.5 4.109375 -2.21875 C 5.078125 -1.9375 6.066406 -1.796875 7.078125 -1.796875 C 8.546875 -1.796875 9.613281 -2.035156 10.28125 -2.515625 C 10.945312 -2.992188 11.28125 -3.644531 11.28125 -4.46875 C 11.28125 -4.9375 11.144531 -5.347656 10.875 -5.703125 C 10.613281 -6.066406 10.171875 -6.414062 9.546875 -6.75 C 8.921875 -7.09375 8.0625 -7.46875 6.96875 -7.875 C 5.875 -8.28125 4.925781 -8.6875 4.125 -9.09375 C 3.332031 -9.507812 2.71875 -10.015625 2.28125 -10.609375 C 1.851562 -11.203125 1.640625 -11.972656 1.640625 -12.921875 C 1.640625 -14.367188 2.222656 -15.476562 3.390625 -16.25 C 4.566406 -17.03125 6.101562 -17.421875 8 -17.421875 C 9.03125 -17.421875 9.992188 -17.316406 10.890625 -17.109375 C 11.796875 -16.910156 12.640625 -16.640625 13.421875 -16.296875 L 12.546875 -14.21875 C 11.835938 -14.519531 11.082031 -14.773438 10.28125 -14.984375 C 9.476562 -15.191406 8.664062 -15.296875 7.84375 -15.296875 C 6.644531 -15.296875 5.722656 -15.097656 5.078125 -14.703125 C 4.441406 -14.304688 4.125 -13.765625 4.125 -13.078125 C 4.125 -12.546875 4.269531 -12.109375 4.5625 -11.765625 C 4.863281 -11.421875 5.34375 -11.097656 6 -10.796875 C 6.65625 -10.492188 7.515625 -10.140625 8.578125 -9.734375 C 9.648438 -9.335938 10.578125 -8.929688 11.359375 -8.515625 C 12.140625 -8.097656 12.738281 -7.585938 13.15625 -6.984375 C 13.582031 -6.390625 13.796875 -5.625 13.796875 -4.6875 Z M 13.796875 -4.6875 "
                 id="path69" />
            </g>
          </g>
        </g>
        <g
           fill="#34495e"
           fill-opacity="1"
           id="g75">
          <g
             transform="translate(113.627631, 1115.611046)"
             id="g74">
            <g
               id="g73">
              <path
                 d="M 9.125 -17.390625 C 11.164062 -17.390625 12.679688 -16.929688 13.671875 -16.015625 C 14.660156 -15.097656 15.15625 -13.632812 15.15625 -11.625 L 15.15625 0 L 13.265625 0 L 12.765625 -2.53125 L 12.640625 -2.53125 C 12.160156 -1.90625 11.660156 -1.378906 11.140625 -0.953125 C 10.617188 -0.535156 10.015625 -0.21875 9.328125 0 C 8.648438 0.207031 7.820312 0.3125 6.84375 0.3125 C 5.800781 0.3125 4.875 0.128906 4.0625 -0.234375 C 3.257812 -0.597656 2.625 -1.148438 2.15625 -1.890625 C 1.695312 -2.628906 1.46875 -3.566406 1.46875 -4.703125 C 1.46875 -6.410156 2.144531 -7.71875 3.5 -8.625 C 4.851562 -9.539062 6.910156 -10.039062 9.671875 -10.125 L 12.625 -10.25 L 12.625 -11.296875 C 12.625 -12.773438 12.304688 -13.8125 11.671875 -14.40625 C 11.035156 -15 10.140625 -15.296875 8.984375 -15.296875 C 8.097656 -15.296875 7.25 -15.164062 6.4375 -14.90625 C 5.625 -14.644531 4.851562 -14.335938 4.125 -13.984375 L 3.328125 -15.953125 C 4.097656 -16.347656 4.984375 -16.6875 5.984375 -16.96875 C 6.984375 -17.25 8.03125 -17.390625 9.125 -17.390625 Z M 12.59375 -8.421875 L 9.984375 -8.3125 C 7.859375 -8.226562 6.359375 -7.878906 5.484375 -7.265625 C 4.609375 -6.660156 4.171875 -5.796875 4.171875 -4.671875 C 4.171875 -3.691406 4.46875 -2.96875 5.0625 -2.5 C 5.65625 -2.03125 6.441406 -1.796875 7.421875 -1.796875 C 8.929688 -1.796875 10.171875 -2.21875 11.140625 -3.0625 C 12.109375 -3.90625 12.59375 -5.171875 12.59375 -6.859375 Z M 12.59375 -8.421875 "
                 id="path72" />
            </g>
          </g>
        </g>
        <g
           fill="#34495e"
           fill-opacity="1"
           id="g78">
          <g
             transform="translate(131.38885, 1115.611046)"
             id="g77">
            <g
               id="g76">
              <path
                 d="M 5.34375 0 L 2.734375 0 L 2.734375 -24.28125 L 5.34375 -24.28125 Z M 5.34375 0 "
                 id="path75" />
            </g>
          </g>
        </g>
        <g
           fill="#34495e"
           fill-opacity="1"
           id="g81">
          <g
             transform="translate(139.457875, 1115.611046)"
             id="g80">
            <g
               id="g79">
              <path
                 d="M 7.515625 7.6875 C 5.265625 7.6875 3.53125 7.265625 2.3125 6.421875 C 1.09375 5.585938 0.484375 4.414062 0.484375 2.90625 C 0.484375 1.832031 0.820312 0.914062 1.5 0.15625 C 2.1875 -0.601562 3.132812 -1.109375 4.34375 -1.359375 C 3.894531 -1.566406 3.507812 -1.878906 3.1875 -2.296875 C 2.875 -2.710938 2.71875 -3.191406 2.71875 -3.734375 C 2.71875 -4.359375 2.890625 -4.90625 3.234375 -5.375 C 3.585938 -5.851562 4.125 -6.3125 4.84375 -6.75 C 3.945312 -7.113281 3.21875 -7.726562 2.65625 -8.59375 C 2.101562 -9.457031 1.828125 -10.46875 1.828125 -11.625 C 1.828125 -12.851562 2.082031 -13.898438 2.59375 -14.765625 C 3.101562 -15.640625 3.84375 -16.304688 4.8125 -16.765625 C 5.78125 -17.222656 6.945312 -17.453125 8.3125 -17.453125 C 8.613281 -17.453125 8.914062 -17.4375 9.21875 -17.40625 C 9.53125 -17.382812 9.828125 -17.347656 10.109375 -17.296875 C 10.390625 -17.253906 10.632812 -17.203125 10.84375 -17.140625 L 16.71875 -17.140625 L 16.71875 -15.46875 L 13.5625 -15.078125 C 13.875 -14.671875 14.132812 -14.179688 14.34375 -13.609375 C 14.550781 -13.035156 14.65625 -12.398438 14.65625 -11.703125 C 14.65625 -9.992188 14.078125 -8.640625 12.921875 -7.640625 C 11.765625 -6.640625 10.175781 -6.140625 8.15625 -6.140625 C 7.6875 -6.140625 7.203125 -6.179688 6.703125 -6.265625 C 6.191406 -5.984375 5.800781 -5.671875 5.53125 -5.328125 C 5.269531 -4.984375 5.140625 -4.585938 5.140625 -4.140625 C 5.140625 -3.804688 5.238281 -3.539062 5.4375 -3.34375 C 5.644531 -3.144531 5.941406 -3 6.328125 -2.90625 C 6.710938 -2.820312 7.175781 -2.78125 7.71875 -2.78125 L 10.71875 -2.78125 C 12.582031 -2.78125 14.007812 -2.390625 15 -1.609375 C 16 -0.828125 16.5 0.3125 16.5 1.8125 C 16.5 3.707031 15.726562 5.160156 14.1875 6.171875 C 12.644531 7.179688 10.421875 7.6875 7.515625 7.6875 Z M 7.59375 5.65625 C 9 5.65625 10.164062 5.507812 11.09375 5.21875 C 12.03125 4.9375 12.726562 4.523438 13.1875 3.984375 C 13.65625 3.453125 13.890625 2.816406 13.890625 2.078125 C 13.890625 1.390625 13.734375 0.867188 13.421875 0.515625 C 13.109375 0.171875 12.648438 -0.0546875 12.046875 -0.171875 C 11.441406 -0.296875 10.703125 -0.359375 9.828125 -0.359375 L 6.875 -0.359375 C 6.101562 -0.359375 5.429688 -0.238281 4.859375 0 C 4.285156 0.238281 3.84375 0.59375 3.53125 1.0625 C 3.226562 1.53125 3.078125 2.113281 3.078125 2.8125 C 3.078125 3.738281 3.46875 4.441406 4.25 4.921875 C 5.03125 5.410156 6.144531 5.65625 7.59375 5.65625 Z M 8.25 -8.015625 C 9.488281 -8.015625 10.421875 -8.328125 11.046875 -8.953125 C 11.671875 -9.578125 11.984375 -10.488281 11.984375 -11.6875 C 11.984375 -12.96875 11.664062 -13.925781 11.03125 -14.5625 C 10.394531 -15.207031 9.457031 -15.53125 8.21875 -15.53125 C 7.039062 -15.53125 6.128906 -15.195312 5.484375 -14.53125 C 4.847656 -13.875 4.53125 -12.910156 4.53125 -11.640625 C 4.53125 -10.472656 4.851562 -9.578125 5.5 -8.953125 C 6.144531 -8.328125 7.0625 -8.015625 8.25 -8.015625 Z M 8.25 -8.015625 "
                 id="path78" />
            </g>
          </g>
        </g>
        <g
           fill="#34495e"
           fill-opacity="1"
           id="g84">
          <g
             transform="translate(156.813302, 1115.611046)"
             id="g83">
            <g
               id="g82">
              <path
                 d="M 17.484375 -8.578125 C 17.484375 -7.179688 17.300781 -5.929688 16.9375 -4.828125 C 16.570312 -3.722656 16.046875 -2.789062 15.359375 -2.03125 C 14.671875 -1.269531 13.835938 -0.6875 12.859375 -0.28125 C 11.890625 0.113281 10.789062 0.3125 9.5625 0.3125 C 8.425781 0.3125 7.378906 0.113281 6.421875 -0.28125 C 5.472656 -0.6875 4.648438 -1.269531 3.953125 -2.03125 C 3.265625 -2.789062 2.726562 -3.722656 2.34375 -4.828125 C 1.96875 -5.929688 1.78125 -7.179688 1.78125 -8.578125 C 1.78125 -10.453125 2.097656 -12.046875 2.734375 -13.359375 C 3.367188 -14.679688 4.273438 -15.6875 5.453125 -16.375 C 6.640625 -17.070312 8.046875 -17.421875 9.671875 -17.421875 C 11.234375 -17.421875 12.597656 -17.070312 13.765625 -16.375 C 14.941406 -15.675781 15.851562 -14.664062 16.5 -13.34375 C 17.15625 -12.03125 17.484375 -10.441406 17.484375 -8.578125 Z M 4.46875 -8.578125 C 4.46875 -7.210938 4.648438 -6.023438 5.015625 -5.015625 C 5.378906 -4.003906 5.941406 -3.222656 6.703125 -2.671875 C 7.460938 -2.117188 8.4375 -1.84375 9.625 -1.84375 C 10.8125 -1.84375 11.785156 -2.117188 12.546875 -2.671875 C 13.316406 -3.222656 13.882812 -4.003906 14.25 -5.015625 C 14.613281 -6.023438 14.796875 -7.210938 14.796875 -8.578125 C 14.796875 -9.941406 14.613281 -11.117188 14.25 -12.109375 C 13.882812 -13.109375 13.320312 -13.878906 12.5625 -14.421875 C 11.800781 -14.960938 10.816406 -15.234375 9.609375 -15.234375 C 7.835938 -15.234375 6.535156 -14.644531 5.703125 -13.46875 C 4.878906 -12.289062 4.46875 -10.660156 4.46875 -8.578125 Z M 4.46875 -8.578125 "
                 id="path81" />
            </g>
          </g>
        </g>
        <g
           fill="#34495e"
           fill-opacity="1"
           id="g87">
          <g
             transform="translate(176.041616, 1115.611046)"
             id="g86">
            <g
               id="g85" />
          </g>
        </g>
        <g
           fill="#34495e"
           fill-opacity="1"
           id="g90">
          <g
             transform="translate(184.344752, 1115.611046)"
             id="g89">
            <g
               id="g88">
              <path
                 d="M 5.34375 0 L 2.734375 0 L 2.734375 -24.28125 L 5.34375 -24.28125 Z M 5.34375 0 "
                 id="path87" />
            </g>
          </g>
        </g>
        <g
           fill="#34495e"
           fill-opacity="1"
           id="g93">
          <g
             transform="translate(192.413777, 1115.611046)"
             id="g92">
            <g
               id="g91">
              <path
                 d="M 9.125 -17.390625 C 11.164062 -17.390625 12.679688 -16.929688 13.671875 -16.015625 C 14.660156 -15.097656 15.15625 -13.632812 15.15625 -11.625 L 15.15625 0 L 13.265625 0 L 12.765625 -2.53125 L 12.640625 -2.53125 C 12.160156 -1.90625 11.660156 -1.378906 11.140625 -0.953125 C 10.617188 -0.535156 10.015625 -0.21875 9.328125 0 C 8.648438 0.207031 7.820312 0.3125 6.84375 0.3125 C 5.800781 0.3125 4.875 0.128906 4.0625 -0.234375 C 3.257812 -0.597656 2.625 -1.148438 2.15625 -1.890625 C 1.695312 -2.628906 1.46875 -3.566406 1.46875 -4.703125 C 1.46875 -6.410156 2.144531 -7.71875 3.5 -8.625 C 4.851562 -9.539062 6.910156 -10.039062 9.671875 -10.125 L 12.625 -10.25 L 12.625 -11.296875 C 12.625 -12.773438 12.304688 -13.8125 11.671875 -14.40625 C 11.035156 -15 10.140625 -15.296875 8.984375 -15.296875 C 8.097656 -15.296875 7.25 -15.164062 6.4375 -14.90625 C 5.625 -14.644531 4.851562 -14.335938 4.125 -13.984375 L 3.328125 -15.953125 C 4.097656 -16.347656 4.984375 -16.6875 5.984375 -16.96875 C 6.984375 -17.25 8.03125 -17.390625 9.125 -17.390625 Z M 12.59375 -8.421875 L 9.984375 -8.3125 C 7.859375 -8.226562 6.359375 -7.878906 5.484375 -7.265625 C 4.609375 -6.660156 4.171875 -5.796875 4.171875 -4.671875 C 4.171875 -3.691406 4.46875 -2.96875 5.0625 -2.5 C 5.65625 -2.03125 6.441406 -1.796875 7.421875 -1.796875 C 8.929688 -1.796875 10.171875 -2.21875 11.140625 -3.0625 C 12.109375 -3.90625 12.59375 -5.171875 12.59375 -6.859375 Z M 12.59375 -8.421875 "
                 id="path90" />
            </g>
          </g>
        </g>
        <g
           fill="#34495e"
           fill-opacity="1"
           id="g96">
          <g
             transform="translate(210.174996, 1115.611046)"
             id="g95">
            <g
               id="g94">
              <path
                 d="M 5.328125 -24.28125 L 5.328125 -18.21875 C 5.328125 -17.519531 5.304688 -16.84375 5.265625 -16.1875 C 5.234375 -15.53125 5.207031 -15.019531 5.1875 -14.65625 L 5.328125 -14.65625 C 5.796875 -15.425781 6.46875 -16.078125 7.34375 -16.609375 C 8.226562 -17.140625 9.359375 -17.40625 10.734375 -17.40625 C 12.878906 -17.40625 14.585938 -16.660156 15.859375 -15.171875 C 17.140625 -13.691406 17.78125 -11.488281 17.78125 -8.5625 C 17.78125 -6.644531 17.488281 -5.023438 16.90625 -3.703125 C 16.320312 -2.378906 15.5 -1.378906 14.4375 -0.703125 C 13.375 -0.0234375 12.117188 0.3125 10.671875 0.3125 C 9.316406 0.3125 8.207031 0.0625 7.34375 -0.4375 C 6.476562 -0.945312 5.8125 -1.566406 5.34375 -2.296875 L 5.140625 -2.296875 L 4.609375 0 L 2.734375 0 L 2.734375 -24.28125 Z M 10.3125 -15.234375 C 9.070312 -15.234375 8.085938 -14.988281 7.359375 -14.5 C 6.640625 -14.019531 6.117188 -13.289062 5.796875 -12.3125 C 5.484375 -11.34375 5.328125 -10.113281 5.328125 -8.625 L 5.328125 -8.484375 C 5.328125 -6.335938 5.6875 -4.691406 6.40625 -3.546875 C 7.125 -2.410156 8.425781 -1.84375 10.3125 -1.84375 C 11.90625 -1.84375 13.097656 -2.425781 13.890625 -3.59375 C 14.691406 -4.757812 15.09375 -6.421875 15.09375 -8.578125 C 15.09375 -10.785156 14.695312 -12.445312 13.90625 -13.5625 C 13.125 -14.675781 11.925781 -15.234375 10.3125 -15.234375 Z M 10.3125 -15.234375 "
                 id="path93" />
            </g>
          </g>
        </g>
        <g
           fill="#34495e"
           fill-opacity="1"
           id="g99">
          <g
             transform="translate(229.731066, 1115.611046)"
             id="g98">
            <g
               id="g97">
              <path
                 d="M 17.484375 -8.578125 C 17.484375 -7.179688 17.300781 -5.929688 16.9375 -4.828125 C 16.570312 -3.722656 16.046875 -2.789062 15.359375 -2.03125 C 14.671875 -1.269531 13.835938 -0.6875 12.859375 -0.28125 C 11.890625 0.113281 10.789062 0.3125 9.5625 0.3125 C 8.425781 0.3125 7.378906 0.113281 6.421875 -0.28125 C 5.472656 -0.6875 4.648438 -1.269531 3.953125 -2.03125 C 3.265625 -2.789062 2.726562 -3.722656 2.34375 -4.828125 C 1.96875 -5.929688 1.78125 -7.179688 1.78125 -8.578125 C 1.78125 -10.453125 2.097656 -12.046875 2.734375 -13.359375 C 3.367188 -14.679688 4.273438 -15.6875 5.453125 -16.375 C 6.640625 -17.070312 8.046875 -17.421875 9.671875 -17.421875 C 11.234375 -17.421875 12.597656 -17.070312 13.765625 -16.375 C 14.941406 -15.675781 15.851562 -14.664062 16.5 -13.34375 C 17.15625 -12.03125 17.484375 -10.441406 17.484375 -8.578125 Z M 4.46875 -8.578125 C 4.46875 -7.210938 4.648438 -6.023438 5.015625 -5.015625 C 5.378906 -4.003906 5.941406 -3.222656 6.703125 -2.671875 C 7.460938 -2.117188 8.4375 -1.84375 9.625 -1.84375 C 10.8125 -1.84375 11.785156 -2.117188 12.546875 -2.671875 C 13.316406 -3.222656 13.882812 -4.003906 14.25 -5.015625 C 14.613281 -6.023438 14.796875 -7.210938 14.796875 -8.578125 C 14.796875 -9.941406 14.613281 -11.117188 14.25 -12.109375 C 13.882812 -13.109375 13.320312 -13.878906 12.5625 -14.421875 C 11.800781 -14.960938 10.816406 -15.234375 9.609375 -15.234375 C 7.835938 -15.234375 6.535156 -14.644531 5.703125 -13.46875 C 4.878906 -12.289062 4.46875 -10.660156 4.46875 -8.578125 Z M 4.46875 -8.578125 "
                 id="path96" />
            </g>
          </g>
        </g>
        <g
           fill="#34495e"
           fill-opacity="1"
           id="g102">
          <g
             transform="translate(248.95938, 1115.611046)"
             id="g101">
            <g
               id="g100">
              <path
                 d="M 10.5 -17.421875 C 10.84375 -17.421875 11.203125 -17.398438 11.578125 -17.359375 C 11.953125 -17.328125 12.285156 -17.28125 12.578125 -17.21875 L 12.25 -14.8125 C 11.96875 -14.882812 11.65625 -14.941406 11.3125 -14.984375 C 10.96875 -15.023438 10.644531 -15.046875 10.34375 -15.046875 C 9.65625 -15.046875 9.007812 -14.90625 8.40625 -14.625 C 7.800781 -14.351562 7.269531 -13.957031 6.8125 -13.4375 C 6.351562 -12.925781 5.992188 -12.304688 5.734375 -11.578125 C 5.472656 -10.859375 5.34375 -10.054688 5.34375 -9.171875 L 5.34375 0 L 2.734375 0 L 2.734375 -17.109375 L 4.890625 -17.109375 L 5.171875 -13.953125 L 5.28125 -13.953125 C 5.632812 -14.585938 6.0625 -15.164062 6.5625 -15.6875 C 7.0625 -16.21875 7.640625 -16.640625 8.296875 -16.953125 C 8.953125 -17.265625 9.6875 -17.421875 10.5 -17.421875 Z M 10.5 -17.421875 "
                 id="path99" />
            </g>
          </g>
        </g>
        <g
           fill="#34495e"
           fill-opacity="1"
           id="g105">
          <g
             transform="translate(262.022773, 1115.611046)"
             id="g104">
            <g
               id="g103">
              <path
                 d="M 9.125 -17.390625 C 11.164062 -17.390625 12.679688 -16.929688 13.671875 -16.015625 C 14.660156 -15.097656 15.15625 -13.632812 15.15625 -11.625 L 15.15625 0 L 13.265625 0 L 12.765625 -2.53125 L 12.640625 -2.53125 C 12.160156 -1.90625 11.660156 -1.378906 11.140625 -0.953125 C 10.617188 -0.535156 10.015625 -0.21875 9.328125 0 C 8.648438 0.207031 7.820312 0.3125 6.84375 0.3125 C 5.800781 0.3125 4.875 0.128906 4.0625 -0.234375 C 3.257812 -0.597656 2.625 -1.148438 2.15625 -1.890625 C 1.695312 -2.628906 1.46875 -3.566406 1.46875 -4.703125 C 1.46875 -6.410156 2.144531 -7.71875 3.5 -8.625 C 4.851562 -9.539062 6.910156 -10.039062 9.671875 -10.125 L 12.625 -10.25 L 12.625 -11.296875 C 12.625 -12.773438 12.304688 -13.8125 11.671875 -14.40625 C 11.035156 -15 10.140625 -15.296875 8.984375 -15.296875 C 8.097656 -15.296875 7.25 -15.164062 6.4375 -14.90625 C 5.625 -14.644531 4.851562 -14.335938 4.125 -13.984375 L 3.328125 -15.953125 C 4.097656 -16.347656 4.984375 -16.6875 5.984375 -16.96875 C 6.984375 -17.25 8.03125 -17.390625 9.125 -17.390625 Z M 12.59375 -8.421875 L 9.984375 -8.3125 C 7.859375 -8.226562 6.359375 -7.878906 5.484375 -7.265625 C 4.609375 -6.660156 4.171875 -5.796875 4.171875 -4.671875 C 4.171875 -3.691406 4.46875 -2.96875 5.0625 -2.5 C 5.65625 -2.03125 6.441406 -1.796875 7.421875 -1.796875 C 8.929688 -1.796875 10.171875 -2.21875 11.140625 -3.0625 C 12.109375 -3.90625 12.59375 -5.171875 12.59375 -6.859375 Z M 12.59375 -8.421875 "
                 id="path102" />
            </g>
          </g>
        </g>
        <g
           fill="#34495e"
           fill-opacity="1"
           id="g108">
          <g
             transform="translate(279.783992, 1115.611046)"
             id="g107">
            <g
               id="g106">
              <path
                 d="M 8.25 -1.8125 C 8.675781 -1.8125 9.113281 -1.847656 9.5625 -1.921875 C 10.007812 -1.992188 10.375 -2.082031 10.65625 -2.1875 L 10.65625 -0.171875 C 10.351562 -0.0351562 9.929688 0.078125 9.390625 0.171875 C 8.859375 0.265625 8.34375 0.3125 7.84375 0.3125 C 6.9375 0.3125 6.113281 0.15625 5.375 -0.15625 C 4.632812 -0.476562 4.039062 -1.019531 3.59375 -1.78125 C 3.15625 -2.539062 2.9375 -3.59375 2.9375 -4.9375 L 2.9375 -15.078125 L 0.5 -15.078125 L 0.5 -16.34375 L 2.953125 -17.359375 L 3.984375 -21.078125 L 5.546875 -21.078125 L 5.546875 -17.109375 L 10.546875 -17.109375 L 10.546875 -15.078125 L 5.546875 -15.078125 L 5.546875 -5.015625 C 5.546875 -3.941406 5.789062 -3.140625 6.28125 -2.609375 C 6.78125 -2.078125 7.4375 -1.8125 8.25 -1.8125 Z M 8.25 -1.8125 "
                 id="path105" />
            </g>
          </g>
        </g>
        <g
           fill="#34495e"
           fill-opacity="1"
           id="g111">
          <g
             transform="translate(291.177381, 1115.611046)"
             id="g110">
            <g
               id="g109">
              <path
                 d="M 17.484375 -8.578125 C 17.484375 -7.179688 17.300781 -5.929688 16.9375 -4.828125 C 16.570312 -3.722656 16.046875 -2.789062 15.359375 -2.03125 C 14.671875 -1.269531 13.835938 -0.6875 12.859375 -0.28125 C 11.890625 0.113281 10.789062 0.3125 9.5625 0.3125 C 8.425781 0.3125 7.378906 0.113281 6.421875 -0.28125 C 5.472656 -0.6875 4.648438 -1.269531 3.953125 -2.03125 C 3.265625 -2.789062 2.726562 -3.722656 2.34375 -4.828125 C 1.96875 -5.929688 1.78125 -7.179688 1.78125 -8.578125 C 1.78125 -10.453125 2.097656 -12.046875 2.734375 -13.359375 C 3.367188 -14.679688 4.273438 -15.6875 5.453125 -16.375 C 6.640625 -17.070312 8.046875 -17.421875 9.671875 -17.421875 C 11.234375 -17.421875 12.597656 -17.070312 13.765625 -16.375 C 14.941406 -15.675781 15.851562 -14.664062 16.5 -13.34375 C 17.15625 -12.03125 17.484375 -10.441406 17.484375 -8.578125 Z M 4.46875 -8.578125 C 4.46875 -7.210938 4.648438 -6.023438 5.015625 -5.015625 C 5.378906 -4.003906 5.941406 -3.222656 6.703125 -2.671875 C 7.460938 -2.117188 8.4375 -1.84375 9.625 -1.84375 C 10.8125 -1.84375 11.785156 -2.117188 12.546875 -2.671875 C 13.316406 -3.222656 13.882812 -4.003906 14.25 -5.015625 C 14.613281 -6.023438 14.796875 -7.210938 14.796875 -8.578125 C 14.796875 -9.941406 14.613281 -11.117188 14.25 -12.109375 C 13.882812 -13.109375 13.320312 -13.878906 12.5625 -14.421875 C 11.800781 -14.960938 10.816406 -15.234375 9.609375 -15.234375 C 7.835938 -15.234375 6.535156 -14.644531 5.703125 -13.46875 C 4.878906 -12.289062 4.46875 -10.660156 4.46875 -8.578125 Z M 4.46875 -8.578125 "
                 id="path108" />
            </g>
          </g>
        </g>
        <g
           fill="#34495e"
           fill-opacity="1"
           id="g114">
          <g
             transform="translate(310.405695, 1115.611046)"
             id="g113">
            <g
               id="g112">
              <path
                 d="M 10.5 -17.421875 C 10.84375 -17.421875 11.203125 -17.398438 11.578125 -17.359375 C 11.953125 -17.328125 12.285156 -17.28125 12.578125 -17.21875 L 12.25 -14.8125 C 11.96875 -14.882812 11.65625 -14.941406 11.3125 -14.984375 C 10.96875 -15.023438 10.644531 -15.046875 10.34375 -15.046875 C 9.65625 -15.046875 9.007812 -14.90625 8.40625 -14.625 C 7.800781 -14.351562 7.269531 -13.957031 6.8125 -13.4375 C 6.351562 -12.925781 5.992188 -12.304688 5.734375 -11.578125 C 5.472656 -10.859375 5.34375 -10.054688 5.34375 -9.171875 L 5.34375 0 L 2.734375 0 L 2.734375 -17.109375 L 4.890625 -17.109375 L 5.171875 -13.953125 L 5.28125 -13.953125 C 5.632812 -14.585938 6.0625 -15.164062 6.5625 -15.6875 C 7.0625 -16.21875 7.640625 -16.640625 8.296875 -16.953125 C 8.953125 -17.265625 9.6875 -17.421875 10.5 -17.421875 Z M 10.5 -17.421875 "
                 id="path111" />
            </g>
          </g>
        </g>
        <g
           fill="#34495e"
           fill-opacity="1"
           id="g117">
          <g
             transform="translate(323.469099, 1115.611046)"
             id="g116">
            <g
               id="g115">
              <path
                 d="M 0.03125 -17.109375 L 2.8125 -17.109375 L 6.59375 -7.1875 C 6.8125 -6.601562 7.015625 -6.039062 7.203125 -5.5 C 7.390625 -4.96875 7.554688 -4.457031 7.703125 -3.96875 C 7.847656 -3.476562 7.957031 -3.003906 8.03125 -2.546875 L 8.140625 -2.546875 C 8.285156 -3.066406 8.492188 -3.75 8.765625 -4.59375 C 9.035156 -5.445312 9.328125 -6.316406 9.640625 -7.203125 L 13.21875 -17.109375 L 16.015625 -17.109375 L 8.5625 2.515625 C 8.175781 3.566406 7.71875 4.484375 7.1875 5.265625 C 6.664062 6.046875 6.03125 6.644531 5.28125 7.0625 C 4.53125 7.488281 3.625 7.703125 2.5625 7.703125 C 2.070312 7.703125 1.640625 7.671875 1.265625 7.609375 C 0.890625 7.554688 0.566406 7.492188 0.296875 7.421875 L 0.296875 5.34375 C 0.523438 5.394531 0.800781 5.441406 1.125 5.484375 C 1.457031 5.523438 1.800781 5.546875 2.15625 5.546875 C 2.800781 5.546875 3.359375 5.421875 3.828125 5.171875 C 4.304688 4.929688 4.71875 4.578125 5.0625 4.109375 C 5.40625 3.640625 5.703125 3.082031 5.953125 2.4375 L 6.890625 0.03125 Z M 0.03125 -17.109375 "
                 id="path114" />
            </g>
          </g>
        </g>
      </g>
    </g>
  </g>
</svg>
