<svg xmlns="http://www.w3.org/2000/svg" width="876" height="232" font-family="Helvetica, Arial, sans-serif">
<rect width="100%" height="100%" fill="white"/>
<text x="30.0" y="34.0" font-size="15" font-weight="bold" fill="#111">MHC-I groove (34-mer pseudosequence)</text>
<rect x="30.0" y="44.0" width="22.0" height="22.0" rx="3" fill="#0072B2" fill-opacity="0.341" stroke="#9ca3af" stroke-width="0.6"/>
<text x="41.0" y="58.0" text-anchor="middle" font-size="7.5" fill="#374151">1</text>
<rect x="54.0" y="44.0" width="22.0" height="22.0" rx="3" fill="#0072B2" fill-opacity="0.054" stroke="#9ca3af" stroke-width="0.6"/>
<text x="65.0" y="58.0" text-anchor="middle" font-size="7.5" fill="#374151">2</text>
<rect x="78.0" y="44.0" width="22.0" height="22.0" rx="3" fill="#0072B2" fill-opacity="0.082" stroke="#9ca3af" stroke-width="0.6"/>
<text x="89.0" y="58.0" text-anchor="middle" font-size="7.5" fill="#374151">3</text>
<rect x="102.0" y="44.0" width="22.0" height="22.0" rx="3" fill="#0072B2" fill-opacity="0.62" stroke="#9ca3af" stroke-width="0.6"/>
<text x="113.0" y="58.0" text-anchor="middle" font-size="7.5" fill="#374151">4</text>
<rect x="126.0" y="44.0" width="22.0" height="22.0" rx="3" fill="#E69F00" fill-opacity="0.871" stroke="#9ca3af" stroke-width="0.6"/>
<text x="137.0" y="58.0" text-anchor="middle" font-size="7.5" fill="#374151">5</text>
<rect x="150.0" y="44.0" width="22.0" height="22.0" rx="3" fill="#E69F00" fill-opacity="0.29" stroke="#9ca3af" stroke-width="0.6"/>
<text x="161.0" y="58.0" text-anchor="middle" font-size="7.5" fill="#374151">6</text>
<rect x="174.0" y="44.0" width="22.0" height="22.0" rx="3" fill="#E69F00" fill-opacity="0.928" stroke="#9ca3af" stroke-width="0.6"/>
<text x="185.0" y="58.0" text-anchor="middle" font-size="7.5" fill="#374151">7</text>
<rect x="198.0" y="44.0" width="22.0" height="22.0" rx="3" fill="#0072B2" fill-opacity="0.857" stroke="#9ca3af" stroke-width="0.6"/>
<text x="209.0" y="58.0" text-anchor="middle" font-size="7.5" fill="#374151">8</text>
<rect x="222.0" y="44.0" width="22.0" height="22.0" rx="3" fill="#0072B2" fill-opacity="0.742" stroke="#9ca3af" stroke-width="0.6"/>
<text x="233.0" y="58.0" text-anchor="middle" font-size="7.5" fill="#374151">9</text>
<rect x="246.0" y="44.0" width="22.0" height="22.0" rx="3" fill="#E69F00" fill-opacity="0.05" stroke="#9ca3af" stroke-width="0.6"/>
<text x="257.0" y="58.0" text-anchor="middle" font-size="7.5" fill="#374151">10</text>
<rect x="270.0" y="44.0" width="22.0" height="22.0" rx="3" fill="#0072B2" fill-opacity="0.545" stroke="#9ca3af" stroke-width="0.6"/>
<text x="281.0" y="58.0" text-anchor="middle" font-size="7.5" fill="#374151">11</text>
<rect x="294.0" y="44.0" width="22.0" height="22.0" rx="3" fill="#009E73" fill-opacity="0.878" stroke="#9ca3af" stroke-width="0.6"/>
<text x="305.0" y="58.0" text-anchor="middle" font-size="7.5" fill="#374151">12</text>
<rect x="318.0" y="44.0" width="22.0" height="22.0" rx="3" fill="#D55E00" fill-opacity="0.147" stroke="#9ca3af" stroke-width="0.6"/>
<text x="329.0" y="58.0" text-anchor="middle" font-size="7.5" fill="#374151">13</text>
<rect x="342.0" y="44.0" width="22.0" height="22.0" rx="3" fill="#009E73" fill-opacity="0.774" stroke="#9ca3af" stroke-width="0.6"/>
<text x="353.0" y="58.0" text-anchor="middle" font-size="7.5" fill="#374151">14</text>
<rect x="366.0" y="44.0" width="22.0" height="22.0" rx="3" fill="#D55E00" fill-opacity="0.864" stroke="#9ca3af" stroke-width="0.6"/>
<text x="377.0" y="58.0" text-anchor="middle" font-size="7.5" fill="#374151">15</text>
<rect x="390.0" y="44.0" width="22.0" height="22.0" rx="3" fill="#D55E00" fill-opacity="0.921" stroke="#9ca3af" stroke-width="0.6"/>
<text x="401.0" y="58.0" text-anchor="middle" font-size="7.5" fill="#374151">16</text>
<rect x="414.0" y="44.0" width="22.0" height="22.0" rx="3" fill="#D55E00" fill-opacity="0.806" stroke="#9ca3af" stroke-width="0.6"/>
<text x="425.0" y="58.0" text-anchor="middle" font-size="7.5" fill="#374151">17</text>
<rect x="438.0" y="44.0" width="22.0" height="22.0" rx="3" fill="#0072B2" fill-opacity="0.1" stroke="#9ca3af" stroke-width="0.6"/>
<text x="449.0" y="58.0" text-anchor="middle" font-size="7.5" fill="#374151">18</text>
<rect x="462.0" y="44.0" width="22.0" height="22.0" rx="3" fill="#D55E00" fill-opacity="0.437" stroke="#9ca3af" stroke-width="0.6"/>
<text x="473.0" y="58.0" text-anchor="middle" font-size="7.5" fill="#374151">19</text>
<rect x="486.0" y="44.0" width="22.0" height="22.0" rx="3" fill="#56B4E9" fill-opacity="0.319" stroke="#9ca3af" stroke-width="0.6"/>
<text x="497.0" y="58.0" text-anchor="middle" font-size="7.5" fill="#374151">20</text>
<rect x="510.0" y="44.0" width="22.0" height="22.0" rx="3" fill="#0072B2" fill-opacity="0.133" stroke="#9ca3af" stroke-width="0.6"/>
<text x="521.0" y="58.0" text-anchor="middle" font-size="7.5" fill="#374151">21</text>
<rect x="534.0" y="44.0" width="22.0" height="22.0" rx="3" fill="#56B4E9" fill-opacity="0.326" stroke="#9ca3af" stroke-width="0.6"/>
<text x="545.0" y="58.0" text-anchor="middle" font-size="7.5" fill="#374151">22</text>
<rect x="558.0" y="44.0" width="22.0" height="22.0" rx="3" fill="#D55E00" fill-opacity="0.595" stroke="#9ca3af" stroke-width="0.6"/>
<text x="569.0" y="58.0" text-anchor="middle" font-size="7.5" fill="#374151">23</text>
<rect x="582.0" y="44.0" width="22.0" height="22.0" rx="3" fill="#E69F00" fill-opacity="0.469" stroke="#9ca3af" stroke-width="0.6"/>
<text x="593.0" y="58.0" text-anchor="middle" font-size="7.5" fill="#374151">24</text>
<rect x="606.0" y="44.0" width="22.0" height="22.0" rx="3" fill="#D55E00" fill-opacity="0.43" stroke="#9ca3af" stroke-width="0.6"/>
<text x="617.0" y="58.0" text-anchor="middle" font-size="7.5" fill="#374151">25</text>
<rect x="630.0" y="44.0" width="22.0" height="22.0" rx="3" fill="#E69F00" fill-opacity="0.566" stroke="#9ca3af" stroke-width="0.6"/>
<text x="641.0" y="58.0" text-anchor="middle" font-size="7.5" fill="#374151">26</text>
<rect x="654.0" y="44.0" width="22.0" height="22.0" rx="3" fill="#e5e7eb" fill-opacity="1.0" stroke="#9ca3af" stroke-width="0.6"/>
<text x="665.0" y="58.0" text-anchor="middle" font-size="7.5" fill="#374151">27</text>
<rect x="678.0" y="44.0" width="22.0" height="22.0" rx="3" fill="#e5e7eb" fill-opacity="1.0" stroke="#9ca3af" stroke-width="0.6"/>
<text x="689.0" y="58.0" text-anchor="middle" font-size="7.5" fill="#374151">28</text>
<rect x="702.0" y="44.0" width="22.0" height="22.0" rx="3" fill="#56B4E9" fill-opacity="0.111" stroke="#9ca3af" stroke-width="0.6"/>
<text x="713.0" y="58.0" text-anchor="middle" font-size="7.5" fill="#374151">29</text>
<rect x="726.0" y="44.0" width="22.0" height="22.0" rx="3" fill="#e5e7eb" fill-opacity="1.0" stroke="#9ca3af" stroke-width="0.6"/>
<text x="737.0" y="58.0" text-anchor="middle" font-size="7.5" fill="#374151">30</text>
<rect x="750.0" y="44.0" width="22.0" height="22.0" rx="3" fill="#E69F00" fill-opacity="0.197" stroke="#9ca3af" stroke-width="0.6"/>
<text x="761.0" y="58.0" text-anchor="middle" font-size="7.5" fill="#374151">31</text>
<rect x="774.0" y="44.0" width="22.0" height="22.0" rx="3" fill="#E69F00" fill-opacity="0.072" stroke="#9ca3af" stroke-width="0.6"/>
<text x="785.0" y="58.0" text-anchor="middle" font-size="7.5" fill="#374151">32</text>
<rect x="798.0" y="44.0" width="22.0" height="22.0" rx="3" fill="#E69F00" fill-opacity="0.194" stroke="#9ca3af" stroke-width="0.6"/>
<text x="809.0" y="58.0" text-anchor="middle" font-size="7.5" fill="#374151">33</text>
<rect x="822.0" y="44.0" width="22.0" height="22.0" rx="3" fill="#E69F00" fill-opacity="0.186" stroke="#9ca3af" stroke-width="0.6"/>
<text x="833.0" y="58.0" text-anchor="middle" font-size="7.5" fill="#374151">34</text>
<rect x="30.0" y="84.0" width="13" height="13" rx="2" fill="#E69F00" stroke="#9ca3af" stroke-width="0.6"/>
<text x="47.0" y="95.0" font-size="11" fill="#111">P1</text>
<rect x="74.6" y="84.0" width="13" height="13" rx="2" fill="#0072B2" stroke="#9ca3af" stroke-width="0.6"/>
<text x="91.6" y="95.0" font-size="11" fill="#111">P2</text>
<rect x="119.3" y="84.0" width="13" height="13" rx="2" fill="#56B4E9" stroke="#9ca3af" stroke-width="0.6"/>
<text x="136.3" y="95.0" font-size="11" fill="#111">P3</text>
<rect x="163.9" y="84.0" width="13" height="13" rx="2" fill="#009E73" stroke="#9ca3af" stroke-width="0.6"/>
<text x="180.9" y="95.0" font-size="11" fill="#111">PΩ-1</text>
<rect x="222.2" y="84.0" width="13" height="13" rx="2" fill="#D55E00" stroke="#9ca3af" stroke-width="0.6"/>
<text x="239.2" y="95.0" font-size="11" fill="#111">PΩ</text>
<text x="30.0" y="128.0" font-size="15" font-weight="bold" fill="#111">MHC-II groove (34-mer pseudosequence)</text>
<rect x="30.0" y="138.0" width="22.0" height="22.0" rx="3" fill="#E69F00" fill-opacity="0.247" stroke="#9ca3af" stroke-width="0.6"/>
<text x="41.0" y="152.0" text-anchor="middle" font-size="7.5" fill="#374151">1</text>
<rect x="54.0" y="138.0" width="22.0" height="22.0" rx="3" fill="#E69F00" fill-opacity="0.065" stroke="#9ca3af" stroke-width="0.6"/>
<text x="65.0" y="152.0" text-anchor="middle" font-size="7.5" fill="#374151">2</text>
<rect x="78.0" y="138.0" width="22.0" height="22.0" rx="3" fill="#E69F00" fill-opacity="0.269" stroke="#9ca3af" stroke-width="0.6"/>
<text x="89.0" y="152.0" text-anchor="middle" font-size="7.5" fill="#374151">3</text>
<rect x="102.0" y="138.0" width="22.0" height="22.0" rx="3" fill="#E69F00" fill-opacity="0.161" stroke="#9ca3af" stroke-width="0.6"/>
<text x="113.0" y="152.0" text-anchor="middle" font-size="7.5" fill="#374151">4</text>
<rect x="126.0" y="138.0" width="22.0" height="22.0" rx="3" fill="#E69F00" fill-opacity="0.247" stroke="#9ca3af" stroke-width="0.6"/>
<text x="137.0" y="152.0" text-anchor="middle" font-size="7.5" fill="#374151">5</text>
<rect x="150.0" y="138.0" width="22.0" height="22.0" rx="3" fill="#E69F00" fill-opacity="0.387" stroke="#9ca3af" stroke-width="0.6"/>
<text x="161.0" y="152.0" text-anchor="middle" font-size="7.5" fill="#374151">6</text>
<rect x="174.0" y="138.0" width="22.0" height="22.0" rx="3" fill="#E69F00" fill-opacity="0.645" stroke="#9ca3af" stroke-width="0.6"/>
<text x="185.0" y="152.0" text-anchor="middle" font-size="7.5" fill="#374151">7</text>
<rect x="198.0" y="138.0" width="22.0" height="22.0" rx="3" fill="#009E73" fill-opacity="0.366" stroke="#9ca3af" stroke-width="0.6"/>
<text x="209.0" y="152.0" text-anchor="middle" font-size="7.5" fill="#374151">8</text>
<rect x="222.0" y="138.0" width="22.0" height="22.0" rx="3" fill="#CC79A7" fill-opacity="0.097" stroke="#9ca3af" stroke-width="0.6"/>
<text x="233.0" y="152.0" text-anchor="middle" font-size="7.5" fill="#374151">9</text>
<rect x="246.0" y="138.0" width="22.0" height="22.0" rx="3" fill="#CC79A7" fill-opacity="0.054" stroke="#9ca3af" stroke-width="0.6"/>
<text x="257.0" y="152.0" text-anchor="middle" font-size="7.5" fill="#374151">10</text>
<rect x="270.0" y="138.0" width="22.0" height="22.0" rx="3" fill="#CC79A7" fill-opacity="0.452" stroke="#9ca3af" stroke-width="0.6"/>
<text x="281.0" y="152.0" text-anchor="middle" font-size="7.5" fill="#374151">11</text>
<rect x="294.0" y="138.0" width="22.0" height="22.0" rx="3" fill="#CC79A7" fill-opacity="0.183" stroke="#9ca3af" stroke-width="0.6"/>
<text x="305.0" y="152.0" text-anchor="middle" font-size="7.5" fill="#374151">12</text>
<rect x="318.0" y="138.0" width="22.0" height="22.0" rx="3" fill="#D55E00" fill-opacity="0.29" stroke="#9ca3af" stroke-width="0.6"/>
<text x="329.0" y="152.0" text-anchor="middle" font-size="7.5" fill="#374151">13</text>
<rect x="342.0" y="138.0" width="22.0" height="22.0" rx="3" fill="#D55E00" fill-opacity="0.29" stroke="#9ca3af" stroke-width="0.6"/>
<text x="353.0" y="152.0" text-anchor="middle" font-size="7.5" fill="#374151">14</text>
<rect x="366.0" y="138.0" width="22.0" height="22.0" rx="3" fill="#D55E00" fill-opacity="0.15" stroke="#9ca3af" stroke-width="0.6"/>
<text x="377.0" y="152.0" text-anchor="middle" font-size="7.5" fill="#374151">15</text>
<rect x="390.0" y="138.0" width="22.0" height="22.0" rx="3" fill="#CC79A7" fill-opacity="0.107" stroke="#9ca3af" stroke-width="0.6"/>
<text x="401.0" y="152.0" text-anchor="middle" font-size="7.5" fill="#374151">16</text>
<rect x="414.0" y="138.0" width="22.0" height="22.0" rx="3" fill="#CC79A7" fill-opacity="0.237" stroke="#9ca3af" stroke-width="0.6"/>
<text x="425.0" y="152.0" text-anchor="middle" font-size="7.5" fill="#374151">17</text>
<rect x="438.0" y="138.0" width="22.0" height="22.0" rx="3" fill="#009E73" fill-opacity="0.161" stroke="#9ca3af" stroke-width="0.6"/>
<text x="449.0" y="152.0" text-anchor="middle" font-size="7.5" fill="#374151">18</text>
<rect x="462.0" y="138.0" width="22.0" height="22.0" rx="3" fill="#009E73" fill-opacity="0.097" stroke="#9ca3af" stroke-width="0.6"/>
<text x="473.0" y="152.0" text-anchor="middle" font-size="7.5" fill="#374151">19</text>
<rect x="486.0" y="138.0" width="22.0" height="22.0" rx="3" fill="#CC79A7" fill-opacity="0.15" stroke="#9ca3af" stroke-width="0.6"/>
<text x="497.0" y="152.0" text-anchor="middle" font-size="7.5" fill="#374151">20</text>
<rect x="510.0" y="138.0" width="22.0" height="22.0" rx="3" fill="#CC79A7" fill-opacity="0.054" stroke="#9ca3af" stroke-width="0.6"/>
<text x="521.0" y="152.0" text-anchor="middle" font-size="7.5" fill="#374151">21</text>
<rect x="534.0" y="138.0" width="22.0" height="22.0" rx="3" fill="#D55E00" fill-opacity="0.161" stroke="#9ca3af" stroke-width="0.6"/>
<text x="545.0" y="152.0" text-anchor="middle" font-size="7.5" fill="#374151">22</text>
<rect x="558.0" y="138.0" width="22.0" height="22.0" rx="3" fill="#D55E00" fill-opacity="0.183" stroke="#9ca3af" stroke-width="0.6"/>
<text x="569.0" y="152.0" text-anchor="middle" font-size="7.5" fill="#374151">23</text>
<rect x="582.0" y="138.0" width="22.0" height="22.0" rx="3" fill="#D55E00" fill-opacity="0.129" stroke="#9ca3af" stroke-width="0.6"/>
<text x="593.0" y="152.0" text-anchor="middle" font-size="7.5" fill="#374151">24</text>
<rect x="606.0" y="138.0" width="22.0" height="22.0" rx="3" fill="#D55E00" fill-opacity="0.15" stroke="#9ca3af" stroke-width="0.6"/>
<text x="617.0" y="152.0" text-anchor="middle" font-size="7.5" fill="#374151">25</text>
<rect x="630.0" y="138.0" width="22.0" height="22.0" rx="3" fill="#009E73" fill-opacity="0.118" stroke="#9ca3af" stroke-width="0.6"/>
<text x="641.0" y="152.0" text-anchor="middle" font-size="7.5" fill="#374151">26</text>
<rect x="654.0" y="138.0" width="22.0" height="22.0" rx="3" fill="#009E73" fill-opacity="0.323" stroke="#9ca3af" stroke-width="0.6"/>
<text x="665.0" y="152.0" text-anchor="middle" font-size="7.5" fill="#374151">27</text>
<rect x="678.0" y="138.0" width="22.0" height="22.0" rx="3" fill="#E69F00" fill-opacity="0.118" stroke="#9ca3af" stroke-width="0.6"/>
<text x="689.0" y="152.0" text-anchor="middle" font-size="7.5" fill="#374151">28</text>
<rect x="702.0" y="138.0" width="22.0" height="22.0" rx="3" fill="#009E73" fill-opacity="0.484" stroke="#9ca3af" stroke-width="0.6"/>
<text x="713.0" y="152.0" text-anchor="middle" font-size="7.5" fill="#374151">29</text>
<rect x="726.0" y="138.0" width="22.0" height="22.0" rx="3" fill="#E69F00" fill-opacity="0.462" stroke="#9ca3af" stroke-width="0.6"/>
<text x="737.0" y="152.0" text-anchor="middle" font-size="7.5" fill="#374151">30</text>
<rect x="750.0" y="138.0" width="22.0" height="22.0" rx="3" fill="#E69F00" fill-opacity="0.419" stroke="#9ca3af" stroke-width="0.6"/>
<text x="761.0" y="152.0" text-anchor="middle" font-size="7.5" fill="#374151">31</text>
<rect x="774.0" y="138.0" width="22.0" height="22.0" rx="3" fill="#E69F00" fill-opacity="0.312" stroke="#9ca3af" stroke-width="0.6"/>
<text x="785.0" y="152.0" text-anchor="middle" font-size="7.5" fill="#374151">32</text>
<rect x="798.0" y="138.0" width="22.0" height="22.0" rx="3" fill="#E69F00" fill-opacity="0.226" stroke="#9ca3af" stroke-width="0.6"/>
<text x="809.0" y="152.0" text-anchor="middle" font-size="7.5" fill="#374151">33</text>
<rect x="822.0" y="138.0" width="22.0" height="22.0" rx="3" fill="#E69F00" fill-opacity="0.054" stroke="#9ca3af" stroke-width="0.6"/>
<text x="833.0" y="152.0" text-anchor="middle" font-size="7.5" fill="#374151">34</text>
<rect x="30.0" y="178.0" width="13" height="13" rx="2" fill="#E69F00" stroke="#9ca3af" stroke-width="0.6"/>
<text x="47.0" y="189.0" font-size="11" fill="#111">P1</text>
<rect x="74.6" y="178.0" width="13" height="13" rx="2" fill="#009E73" stroke="#9ca3af" stroke-width="0.6"/>
<text x="91.6" y="189.0" font-size="11" fill="#111">P4</text>
<rect x="119.3" y="178.0" width="13" height="13" rx="2" fill="#CC79A7" stroke="#9ca3af" stroke-width="0.6"/>
<text x="136.3" y="189.0" font-size="11" fill="#111">P6</text>
<rect x="163.9" y="178.0" width="13" height="13" rx="2" fill="#D55E00" stroke="#9ca3af" stroke-width="0.6"/>
<text x="180.9" y="189.0" font-size="11" fill="#111">P9</text>
</svg>
